<svg width="20" height="20" viewBox="0 0 20 20" fill="none" xmlns="http://www.w3.org/2000/svg">
<path fill-rule="evenodd" clip-rule="evenodd" d="M14.2724 2.75101C14.2714 2.59627 14.3152 2.54407 14.4737 2.54594C15.4049 2.55246 16.337 2.55246 17.2682 2.54501C17.4434 2.54314 17.4798 2.60932 17.4789 2.76872C17.4733 3.68406 17.4723 4.59941 17.4789 5.51569C17.4807 5.68161 17.4304 5.73474 17.2626 5.73195C16.8012 5.72262 14.9537 5.72262 14.4923 5.73101C14.332 5.73474 14.2705 5.69559 14.2714 5.52222C14.2789 4.59755 14.2779 3.67381 14.2724 2.75101ZM12.1275 7.62977C12.1266 7.80687 12.1583 7.87678 12.3596 7.87678C14.6955 7.86839 17.0315 7.86932 19.3674 7.87492C19.537 7.87492 19.6004 7.84322 19.6004 7.65493C19.5929 5.31157 19.5929 2.96727 19.6004 0.623901C19.6004 0.437476 19.5398 0.402055 19.3683 0.402055C17.0324 0.407648 14.6974 0.40858 12.3615 0.401123C12.163 0.401123 12.1266 0.467304 12.1275 0.646272C12.135 1.80957 12.135 6.46554 12.1275 7.62977ZM2.74469 2.54408C3.68428 2.55153 4.62386 2.5506 5.56344 2.54501C5.71258 2.54408 5.7536 2.59907 5.75266 2.73982C5.748 3.67195 5.748 4.60315 5.75266 5.53527C5.7536 5.67695 5.71351 5.73102 5.56344 5.73009C4.6164 5.72449 3.66843 5.72449 2.72139 5.72915C2.58157 5.73009 2.54522 5.67695 2.54708 5.54739C2.55174 5.06921 2.54895 4.59103 2.54895 4.11471C2.54895 3.65983 2.55361 3.20589 2.54615 2.75287C2.54335 2.60187 2.5825 2.54315 2.74469 2.54408ZM5.51782 17.4575C5.05642 17.4473 3.20801 17.4482 2.74661 17.4575C2.58722 17.4613 2.54527 17.4053 2.5462 17.2525C2.5518 16.3287 2.55366 15.405 2.5462 14.4813C2.54434 14.307 2.60772 14.2706 2.76712 14.2715C3.69085 14.2781 4.61459 14.279 5.53833 14.2715C5.70797 14.2697 5.75458 14.3247 5.75365 14.4897C5.74712 15.4059 5.74526 16.3213 5.75458 17.2376C5.75645 17.4268 5.68654 17.4613 5.51782 17.4575ZM7.87424 12.3942C7.87517 12.191 7.83322 12.1258 7.61511 12.1267C5.29504 12.136 2.97498 12.1351 0.655848 12.1286C0.461966 12.1276 0.398581 12.1705 0.400446 12.3756C0.410699 13.5398 0.410699 18.179 0.400446 19.3358C0.398581 19.5399 0.443323 19.6042 0.661441 19.6033C2.97312 19.594 5.28479 19.5949 7.59646 19.6024C7.80992 19.6033 7.8761 19.5539 7.87517 19.3302C7.86678 17.0176 7.86771 14.7068 7.87424 12.3942ZM0.63249 7.87398C2.9684 7.86839 5.30431 7.86746 7.64022 7.87491C7.83876 7.87585 7.87418 7.8078 7.87232 7.62976C7.86579 6.47486 7.86673 1.80304 7.87232 0.622037C7.87325 0.466372 7.84342 0.401123 7.66632 0.401123C5.31456 0.406716 2.96281 0.406716 0.611051 0.401123C0.436744 0.401123 0.401323 0.459847 0.401323 0.621105C0.405983 2.96447 0.406916 5.30877 0.400391 7.6512C0.400391 7.83856 0.460979 7.87398 0.63249 7.87398ZM17.2768 17.4575C16.807 17.4473 14.9437 17.4492 14.4813 17.4575C14.3341 17.4594 14.2707 17.4258 14.2716 17.2609C14.2791 16.3297 14.2772 15.3975 14.2725 14.4663C14.2716 14.3247 14.3108 14.2715 14.4608 14.2725C15.4004 14.2781 16.34 14.2781 17.2787 14.2715C17.4418 14.2706 17.48 14.3312 17.4791 14.4813C17.4735 15.405 17.4735 16.3278 17.4791 17.2515C17.48 17.4035 17.438 17.4613 17.2768 17.4575ZM19.5987 12.3514C19.5996 12.1966 19.5735 12.1286 19.3946 12.1286C17.0428 12.1351 14.6911 12.1342 12.3393 12.1286C12.1678 12.1286 12.1277 12.1836 12.1286 12.3467C12.1324 14.6901 12.1333 17.0344 12.1277 19.3787C12.1268 19.5623 12.1836 19.6014 12.358 19.6014C14.6939 19.5958 17.0298 19.5949 19.3657 19.6024C19.5614 19.6033 19.6006 19.5399 19.5996 19.3591C19.5922 18.1949 19.5931 13.523 19.5987 12.3514Z" fill="white"/>
</svg>
