<svg width="24" height="24" viewBox="0 0 24 24" fill="none" xmlns="http://www.w3.org/2000/svg">
<path fill-rule="evenodd" clip-rule="evenodd" d="M20.2407 17.4712C20.2532 17.5167 20.2677 17.5697 20.3476 17.5228C20.3541 17.5109 20.3603 17.4989 20.3665 17.4869C20.379 17.4629 20.3915 17.4389 20.4059 17.4159C21.737 15.3184 22.2357 13.0342 21.8957 10.5783C21.615 8.54774 20.7805 6.75036 19.3749 5.25741C17.0258 2.76159 14.1261 1.69827 10.718 2.09337C8.61825 2.33842 6.76357 3.18475 5.24572 4.64425C2.28774 7.48875 1.37336 10.9324 2.43456 14.8909C2.70229 15.8938 3.18485 16.8038 3.75486 17.6663C3.81007 17.6431 3.82969 17.595 3.8489 17.5479C3.85561 17.5315 3.86227 17.5152 3.87037 17.5001C4.82146 15.7794 6.28749 14.783 8.20046 14.4095C8.8212 14.2896 9.4495 14.2508 10.081 14.2508C10.4822 14.2505 10.8835 14.2473 11.2846 14.2441C12.2338 14.2366 13.1827 14.2291 14.1305 14.2594C15.6591 14.3091 17.1305 14.621 18.4325 15.4933C19.1849 15.9985 19.7765 16.6494 20.2278 17.4342C20.2331 17.4437 20.2368 17.4571 20.2407 17.4712ZM16.865 20.7354C17.7524 20.2442 18.5361 19.6192 19.2454 18.8991C19.267 18.8808 19.2734 18.8559 19.2734 18.83C19.2714 18.8303 19.2693 18.8306 19.2672 18.8309C19.2606 18.832 19.2538 18.833 19.2465 18.8322C19.0198 18.3194 18.7542 17.8304 18.3742 17.4116C17.6174 16.5803 16.648 16.1507 15.5684 15.9294C14.9725 15.8085 14.369 15.7534 13.7602 15.7524C13.4772 15.7521 13.1943 15.7517 12.9114 15.7513C11.8503 15.7497 10.7891 15.7482 9.72803 15.7567C8.90433 15.7642 8.10006 15.9013 7.33682 16.2306C6.20113 16.7207 5.44328 17.5767 4.95748 18.6951C4.933 18.75 4.90802 18.8049 4.88287 18.8601C4.87142 18.8853 4.85993 18.9105 4.84844 18.9358C4.84089 18.9358 4.83333 18.9348 4.82685 18.9337C4.82901 18.9607 4.83657 18.9844 4.85816 19.0049C5.61385 19.7465 6.44511 20.3856 7.38971 20.8714C9.23143 21.817 11.18 22.1636 13.2366 21.9163C14.5245 21.7631 15.7314 21.3626 16.865 20.7354ZM0.5 11.9989C0.498921 5.6525 5.63436 0.514054 11.9929 0.500021C18.3342 0.488146 23.474 5.6158 23.4999 11.9817C23.5258 18.3194 18.3677 23.4913 12.0102 23.5C5.66135 23.5097 0.50108 18.354 0.5 11.9989ZM9.29199 8.85727C9.28455 10.3419 10.5118 11.5715 12.0005 11.5725C13.4871 11.5736 14.7122 10.3472 14.7101 8.85833C14.708 7.3769 13.4956 6.16221 12.0101 6.15264C10.5267 6.14414 9.29943 7.36521 9.29199 8.85727ZM7.81818 8.84664C7.82562 6.5416 9.70534 4.6744 12.0122 4.68184C14.3244 4.68822 16.186 6.55967 16.1818 8.87002C16.1775 11.1793 14.3063 13.0476 11.9984 13.0455C9.68515 13.0444 7.81287 11.1623 7.81818 8.84664Z" fill="#D1D4C9"/>
</svg>
