<svg width="20" height="20" viewBox="0 0 20 20" fill="none" xmlns="http://www.w3.org/2000/svg">
<path fill-rule="evenodd" clip-rule="evenodd" d="M14.3187 13.1366C15.8351 14.652 17.35 16.168 18.8649 17.6841C19.1894 18.0094 19.2563 18.4201 19.0452 18.763C18.7693 19.2127 18.1667 19.3054 17.7819 18.9455C17.5638 18.7417 17.3541 18.5295 17.1443 18.3171C17.0632 18.235 16.9821 18.1529 16.9004 18.0712C16.7866 17.9574 16.6728 17.8436 16.5589 17.7299C15.4212 16.5925 14.2832 15.4549 13.1488 14.3149C13.0554 14.2207 13.0024 14.2023 12.8847 14.2921C11.7935 15.1244 10.5663 15.6374 9.19776 15.778C6.73811 16.0304 4.63309 15.2665 2.90994 13.5002C1.80777 12.3697 1.16251 10.9957 0.921179 9.43694C0.864525 9.06896 0.829208 8.69583 0.833623 8.31534C0.962381 5.35899 2.26983 3.11284 4.89061 1.68214C6.12007 1.01021 7.45621 0.754092 8.84754 0.854183C10.862 0.998431 12.5609 1.82933 13.9162 3.32774C14.9698 4.49203 15.5937 5.86607 15.7762 7.43145C16.0116 9.45387 15.5025 11.2761 14.2804 12.8996C14.1946 13.0131 14.2427 13.0609 14.3108 13.1288C14.3134 13.1314 14.316 13.134 14.3187 13.1366ZM2.50822 8.32932C2.50527 11.6492 5.21435 14.1795 8.3303 14.1611C11.4359 14.1876 14.1708 11.6816 14.1686 8.32859C14.1664 5.04694 11.5309 2.5123 8.35605 2.50273C5.15549 2.49316 2.51116 5.05283 2.50822 8.32932Z" fill="#62666D"/>
</svg>
